<svg id="visual" viewBox="0 0 900 600" width="900" height="600" xmlns="http://www.w3.org/2000/svg" xmlns:xlink="http://www.w3.org/1999/xlink" version="1.1"><path d="M0 103L13.7 101C27.3 99 54.7 95 82 93C109.3 91 136.7 91 163.8 95C191 99 218 107 245.2 118C272.3 129 299.7 143 327 139C354.3 135 381.7 113 409 114C436.3 115 463.7 139 491 137C518.3 135 545.7 107 573 102C600.3 97 627.7 115 654.8 120C682 125 709 117 736.2 120C763.3 123 790.7 137 818 131C845.3 125 872.7 99 886.3 86L900 73L900 0L886.3 0C872.7 0 845.3 0 818 0C790.7 0 763.3 0 736.2 0C709 0 682 0 654.8 0C627.7 0 600.3 0 573 0C545.7 0 518.3 0 491 0C463.7 0 436.3 0 409 0C381.7 0 354.3 0 327 0C299.7 0 272.3 0 245.2 0C218 0 191 0 163.8 0C136.7 0 109.3 0 82 0C54.7 0 27.3 0 13.7 0L0 0Z" fill="#f2a057"></path><path d="M0 241L13.7 247C27.3 253 54.7 265 82 265C109.3 265 136.7 253 163.8 241C191 229 218 217 245.2 233C272.3 249 299.7 293 327 319C354.3 345 381.7 353 409 338C436.3 323 463.7 285 491 253C518.3 221 545.7 195 573 203C600.3 211 627.7 253 654.8 272C682 291 709 287 736.2 275C763.3 263 790.7 243 818 251C845.3 259 872.7 295 886.3 313L900 331L900 71L886.3 84C872.7 97 845.3 123 818 129C790.7 135 763.3 121 736.2 118C709 115 682 123 654.8 118C627.7 113 600.3 95 573 100C545.7 105 518.3 133 491 135C463.7 137 436.3 113 409 112C381.7 111 354.3 133 327 137C299.7 141 272.3 127 245.2 116C218 105 191 97 163.8 93C136.7 89 109.3 89 82 91C54.7 93 27.3 97 13.7 99L0 101Z" fill="#d37b3f"></path><path d="M0 499L13.7 490C27.3 481 54.7 463 82 453C109.3 443 136.7 441 163.8 445C191 449 218 459 245.2 464C272.3 469 299.7 469 327 470C354.3 471 381.7 473 409 474C436.3 475 463.7 475 491 467C518.3 459 545.7 443 573 441C600.3 439 627.7 451 654.8 460C682 469 709 475 736.2 473C763.3 471 790.7 461 818 460C845.3 459 872.7 467 886.3 471L900 475L900 329L886.3 311C872.7 293 845.3 257 818 249C790.7 241 763.3 261 736.2 273C709 285 682 289 654.8 270C627.7 251 600.3 209 573 201C545.7 193 518.3 219 491 251C463.7 283 436.3 321 409 336C381.7 351 354.3 343 327 317C299.7 291 272.3 247 245.2 231C218 215 191 227 163.8 239C136.7 251 109.3 263 82 263C54.7 263 27.3 251 13.7 245L0 239Z" fill="#b45629"></path><path d="M0 559L13.7 549C27.3 539 54.7 519 82 516C109.3 513 136.7 527 163.8 536C191 545 218 549 245.2 550C272.3 551 299.7 549 327 548C354.3 547 381.7 547 409 544C436.3 541 463.7 535 491 525C518.3 515 545.7 501 573 499C600.3 497 627.7 507 654.8 518C682 529 709 541 736.2 537C763.3 533 790.7 513 818 508C845.3 503 872.7 513 886.3 518L900 523L900 473L886.3 469C872.7 465 845.3 457 818 458C790.7 459 763.3 469 736.2 471C709 473 682 467 654.8 458C627.7 449 600.3 437 573 439C545.7 441 518.3 457 491 465C463.7 473 436.3 473 409 472C381.7 471 354.3 469 327 468C299.7 467 272.3 467 245.2 462C218 457 191 447 163.8 443C136.7 439 109.3 441 82 451C54.7 461 27.3 479 13.7 488L0 497Z" fill="#943216"></path><path d="M0 601L13.7 601C27.3 601 54.7 601 82 601C109.3 601 136.7 601 163.8 601C191 601 218 601 245.2 601C272.3 601 299.7 601 327 601C354.3 601 381.7 601 409 601C436.3 601 463.7 601 491 601C518.3 601 545.7 601 573 601C600.3 601 627.7 601 654.8 601C682 601 709 601 736.2 601C763.3 601 790.7 601 818 601C845.3 601 872.7 601 886.3 601L900 601L900 521L886.3 516C872.7 511 845.3 501 818 506C790.7 511 763.3 531 736.2 535C709 539 682 527 654.8 516C627.7 505 600.3 495 573 497C545.7 499 518.3 513 491 523C463.7 533 436.3 539 409 542C381.7 545 354.3 545 327 546C299.7 547 272.3 549 245.2 548C218 547 191 543 163.8 534C136.7 525 109.3 511 82 514C54.7 517 27.3 537 13.7 547L0 557Z" fill="#730202"></path></svg>